<?xml version="1.0" encoding="UTF-8"?> <svg xmlns="http://www.w3.org/2000/svg" width="110" height="42" viewBox="0 0 110 42" fill="none"> <path d="M0.820167 21.1863L0.680235 21.4738H1H3.62608H3.75098L3.80579 21.3616L6.3584 16.1351H17.0141L19.6249 21.3632L19.6801 21.4738H19.8038H22.4699H22.7912L22.6493 21.1855L12.8782 1.33307L12.8232 1.22139H12.6987H10.6619H10.5368L10.482 1.33386L0.820167 21.1863ZM7.67994 13.4092L11.6811 5.27984L15.7167 13.4092H7.67994Z" fill="#656961" stroke="#656961" stroke-width="0.4"></path> <path d="M40.7699 0.80001C37.7805 0.7964 35.2927 1.79433 33.3221 3.79737C31.3514 5.80055 30.3693 8.3423 30.3693 11.4064L30.3693 11.4067C30.3729 14.4263 31.3462 16.9519 33.2942 18.9686C35.2421 20.9853 37.6665 21.9941 40.5538 21.9941C40.9482 21.9941 41.2582 21.986 41.4756 21.9751C41.645 21.9666 41.8108 21.9531 41.9741 21.936L42.9654 23.969L43.0202 24.0813H43.1452H45.8939H46.2137L46.0738 23.7938L44.8477 21.274C46.735 20.4859 48.3529 19.1578 49.4991 17.4523L49.501 17.4495C50.6647 15.6549 51.2639 13.5492 51.2208 11.407C51.2203 8.35575 50.2326 5.81836 48.2518 3.81059C46.2706 1.80237 43.7715 0.800037 40.7699 0.80001ZM40.7699 0.80001C40.7699 0.80001 40.7699 0.80001 40.77 0.80001L40.7697 0.999618V0.80001C40.7698 0.80001 40.7698 0.80001 40.7699 0.80001ZM39.8099 16.6873H39.4932L39.6294 16.9733L40.709 19.2413H40.6979C38.5454 19.2396 36.7798 18.5014 35.3855 17.0288C33.9905 15.5555 33.2888 13.6867 33.2888 11.4064V11.4063C33.287 9.11771 33.9973 7.23736 35.4119 5.74949C36.826 4.26222 38.6068 3.51796 40.7696 3.51792C42.9381 3.52145 44.7208 4.26592 46.133 5.74957C47.5457 7.23377 48.256 9.11407 48.256 11.4064H48.256L48.2561 11.4103C48.2869 13.0218 47.8403 14.606 46.9733 15.9611C46.1704 17.2078 45.0078 18.1753 43.6441 18.7353L42.7426 16.8028L42.6887 16.6873H42.5613H39.8099Z" fill="#656961" stroke="#656961" stroke-width="0.4"></path> <path d="M64.77 1.43164V1.23164H64.57H62.1226H61.9226V1.43164L61.9226 14.9501L61.9226 14.9504C61.9262 17.4234 62.5668 19.2448 63.8921 20.3587C65.2088 21.4653 67.3455 21.9965 70.2541 21.9965H70.2542C73.1645 21.9947 75.302 21.4635 76.6186 20.3588C77.9442 19.2466 78.5829 17.4249 78.5829 14.9501V1.43164V1.23164H78.3829H75.9168H75.7168V1.43164L75.7168 14.2821L75.7168 14.2836C75.7328 16.3365 75.3531 17.6375 74.6517 18.2764C74.3017 18.5953 73.7681 18.8471 73.0309 19.0182C72.2954 19.1888 71.371 19.2759 70.2541 19.2759C69.1362 19.2759 68.2115 19.1888 67.4759 19.0182C66.7387 18.8471 66.2057 18.5953 65.8566 18.2766C65.1561 17.637 64.77 16.335 64.77 14.2821V1.43164Z" fill="#656961" stroke="#656961" stroke-width="0.4"></path> <path d="M87.3529 21.1863L87.2129 21.4738H87.5327H90.1561H90.281L90.3358 21.3617L92.8911 16.1351H103.531L106.155 21.3636L106.21 21.4738H106.334H109H109.321L109.179 21.1855L99.4109 1.33309L99.356 1.22139H99.2315H97.1946H97.0695L97.0147 1.33386L87.3529 21.1863ZM94.2127 13.4092L98.2139 5.27961L102.255 13.4092H94.2127Z" fill="#656961" stroke="#656961" stroke-width="0.4"></path> <path d="M22.5047 21.4708H22.894L22.6672 21.1543L21.0276 18.8659L20.9678 18.7824H20.865H2.67175H2.55771L2.49963 18.8806L1.14527 21.169L0.966612 21.4708H1.31738H22.5047Z" fill="#656961" stroke="#656961" stroke-width="0.4"></path> <path d="M108.776 21.4708H109.166L108.939 21.1543L107.299 18.8659L107.24 18.7824H107.137H88.9435H88.8295L88.7714 18.8804L87.4144 21.1688L87.2353 21.4708H87.5864H108.776Z" fill="#656961" stroke="#656961" stroke-width="0.4"></path> <path d="M33.4302 33.4169H33.2302V33.6169V40.9006V41.1006H33.4302H35.7023C36.2218 41.111 36.738 41.0163 37.2204 40.8221C37.7027 40.628 38.1413 40.3384 38.5102 39.9706C38.8752 39.621 39.1658 39.2006 39.3645 38.7349C39.5634 38.2684 39.666 37.7662 39.666 37.2587C39.666 36.7513 39.5634 36.249 39.3645 35.7826C39.1658 35.3168 38.8752 34.8964 38.5101 34.5468C38.1409 34.1796 37.7023 33.8903 37.22 33.6962C36.7378 33.5021 36.2218 33.4071 35.7024 33.4169H33.4302ZM35.7043 34.5493V34.5494L35.7097 34.5492C36.0763 34.5395 36.4412 34.6041 36.7825 34.7394C37.1239 34.8746 37.4348 35.0777 37.6966 35.3366L37.697 35.337C37.9513 35.5869 38.1534 35.8855 38.2914 36.2154C38.4294 36.5452 38.5005 36.8995 38.5005 37.2574C38.5005 37.6153 38.4294 37.9696 38.2914 38.2994C38.1534 38.6293 37.9513 38.9279 37.697 39.1778L37.6964 39.1784C37.4348 39.4377 37.124 39.6413 36.7827 39.7769C36.4413 39.9126 36.0763 39.9777 35.7095 39.9683L35.7095 39.9682H35.7043H34.4087V34.5493H35.7043Z" fill="#656961" stroke="#656961" stroke-width="0.4"></path> <path d="M49.2763 34.4668C48.9158 34.0945 48.4833 33.8002 48.0055 33.6021C47.5276 33.404 47.0145 33.3064 46.4977 33.3152C45.5878 33.3163 44.7065 33.6348 44.004 34.2162C43.3011 34.798 42.8207 35.6069 42.6445 36.5048C42.4683 37.4028 42.607 38.3345 43.0372 39.1412C43.4674 39.9478 44.1625 40.5797 45.0043 40.9286C45.846 41.2775 46.7821 41.3218 47.6528 41.0539C48.5234 40.786 49.2745 40.2226 49.7781 39.4601C50.2817 38.6976 50.5067 37.783 50.415 36.8724C50.3234 35.9624 49.921 35.1122 49.2763 34.4668ZM43.7536 37.2577C43.7536 36.5104 44.0389 35.792 44.5501 35.2509C45.0686 34.7328 45.7694 34.4423 46.4996 34.4423C47.2298 34.4423 47.9306 34.7328 48.449 35.2509C48.9603 35.792 49.2456 36.5104 49.2456 37.2577C49.2456 38.0049 48.9603 38.7233 48.449 39.2644C47.9306 39.7825 47.2298 40.073 46.4996 40.073C45.7694 40.073 45.0686 39.7825 44.5501 39.2644C44.0389 38.7233 43.7536 38.0049 43.7536 37.2577Z" fill="#656961" stroke="#656961" stroke-width="0.4"></path> <path d="M58.486 41.0982H58.6823L58.6859 40.9019L58.6992 40.1721L58.703 39.9685H58.4993H54.9668V33.6172V33.4172H54.7668H53.9883H53.7883V33.6172V40.8982V41.0982H53.9883H58.486Z" fill="#656961" stroke="#656961" stroke-width="0.4"></path> <path d="M64.6834 33.3069L64.683 33.3069C63.9096 33.3123 63.1551 33.5471 62.5138 33.9815C61.8725 34.416 61.3728 35.031 61.0772 35.7493C60.7815 36.4677 60.7028 37.2577 60.8509 38.0207C60.999 38.7837 61.3674 39.4861 61.9101 40.0399L62.0529 39.8999L61.9111 40.0409C62.5282 40.662 63.3334 41.059 64.1997 41.169C65.0661 41.2791 65.9442 41.0959 66.6956 40.6485L66.6957 40.6486L66.7015 40.6449C66.9237 40.5018 67.1336 40.3403 67.3289 40.1619C67.4628 40.0455 67.5902 39.9219 67.7107 39.7914L67.7107 39.7915L67.7145 39.7872C67.7646 39.7297 67.8109 39.6689 67.8531 39.6053L67.9477 39.4625L67.8212 39.3471L67.3066 38.8776L67.1451 38.7302L67.0127 38.9042L66.9167 39.0303L66.9166 39.0302L66.9134 39.0347C66.8387 39.1388 66.75 39.2319 66.65 39.3115L66.65 39.3114L66.6458 39.3149C66.4963 39.4406 66.3388 39.5563 66.1743 39.6612C65.972 39.7888 65.7527 39.8865 65.523 39.9516L65.523 39.9516L65.5198 39.9525C65.2508 40.0336 64.9714 40.0742 64.6907 40.0728L64.6907 40.0727L64.6855 40.0728C64.3237 40.0804 63.9643 40.0126 63.6297 39.8736C63.2953 39.7347 62.9929 39.5278 62.7416 39.2657C62.2295 38.7243 61.9437 38.0053 61.9437 37.2574C61.9437 36.5095 62.2295 35.7904 62.7417 35.2491C62.993 34.987 63.2953 34.78 63.6297 34.6411C63.9643 34.5022 64.3237 34.4344 64.6855 34.4419L64.6855 34.442L64.6907 34.442C64.9708 34.4406 65.2494 34.4835 65.5164 34.5692L65.5164 34.5692L65.5198 34.5703C65.743 34.6375 65.9572 34.7322 66.1575 34.8521C66.3184 34.9546 66.4689 35.0728 66.607 35.2048L66.607 35.2048L66.6085 35.2062C66.7004 35.2922 66.7877 35.3832 66.8701 35.4786C66.8978 35.5179 66.9194 35.5508 66.9381 35.5791C66.9428 35.5863 66.9474 35.5932 66.9518 35.5999L67.0805 35.7942L67.253 35.6375L67.7755 35.1626L67.9091 35.0412L67.8021 34.896L67.6874 34.7404L67.6874 34.7403L67.6855 34.7378C67.5711 34.5876 67.4412 34.45 67.2979 34.3273C67.1084 34.1591 66.9065 34.0055 66.6942 33.8676L66.6942 33.8676L66.6911 33.8657C66.416 33.6941 66.1188 33.5612 65.8077 33.4707C65.4431 33.3603 65.0642 33.3051 64.6834 33.3069Z" fill="#656961" stroke="#656961" stroke-width="0.4"></path> <path d="M76.5033 40.1685V39.9685H76.3033H72.2163V37.667H75.3835H75.5835V37.467V36.7399V36.5399H75.3835H72.2163V34.5496H76.1967H76.3967V34.3496V33.6172V33.4172H76.1967H71.2378H71.0378V33.6172V40.8955V41.0955H71.2378H76.3033H76.5033V40.8955V40.1685Z" fill="#656961" stroke="#656961" stroke-width="0.4"></path> </svg> 