<?xml version="1.0" encoding="UTF-8"?> <svg xmlns="http://www.w3.org/2000/svg" width="108" height="40" viewBox="0 0 108 40" fill="none"> <g clip-path="url(#clip0)"> <path d="M0 20.2733L9.66185 0.420898H11.6987L21.4699 20.2733H18.8038L16.1377 14.9346H5.2335L2.62608 20.2733H0ZM6.35859 12.6087H15.0393L10.6803 3.82801L6.35859 12.6087Z" fill="white"></path> <path d="M41.0921 20.7217C40.8868 20.7458 40.6789 20.7646 40.4656 20.7753C40.2523 20.7861 39.9457 20.7941 39.5538 20.7941C36.7189 20.7941 34.3469 19.806 32.438 17.8297C30.5291 15.8534 29.5729 13.379 29.5693 10.4064C29.5693 7.38924 30.5345 4.89963 32.4647 2.93764C34.3949 0.975641 36.8299 -0.00356725 39.7697 9.76438e-06C42.722 9.76438e-06 45.1685 0.98369 47.1094 2.95105C49.0503 4.91841 50.0208 7.40444 50.0208 10.4091C50.0635 12.5121 49.4754 14.5792 48.3332 16.3407C47.1691 18.0727 45.5094 19.4077 43.5742 20.169L44.8939 22.8813H42.1452L41.0921 20.7217ZM40.0257 18.4413L38.8099 15.8873H41.5613L42.5424 17.9906C44.0209 17.4276 45.282 16.404 46.1416 15.0691C47.0301 13.6807 47.4876 12.0575 47.456 10.4064C47.456 8.06887 46.73 6.13728 45.2778 4.61168C43.8257 3.08608 41.9897 2.32149 39.7697 2.31792C37.5551 2.31792 35.7209 3.0825 34.267 4.61168C32.8131 6.14086 32.087 8.07245 32.0888 10.4064C32.0888 12.7315 32.8059 14.6515 34.2403 16.1663C35.6746 17.6812 37.4938 18.4395 39.6977 18.4413H40.0257Z" fill="white"></path> <path d="M63.57 0.431641V13.2821C63.57 15.3424 63.9539 16.7232 64.7218 17.4243C65.4896 18.1254 67.0004 18.4759 69.2541 18.4759C71.506 18.4759 73.0168 18.1254 73.7864 17.4243C74.556 16.7232 74.9328 15.3424 74.9168 13.2821V0.431641H77.3829V13.9501C77.3829 16.395 76.752 18.1468 75.49 19.2056C74.2281 20.2644 72.1494 20.7947 69.2541 20.7965C66.3605 20.7965 64.2827 20.2662 63.0208 19.2056C61.7589 18.145 61.1261 16.3932 61.1226 13.9501V0.431641H63.57Z" fill="white"></path> <path d="M86.5327 20.2733L96.1946 0.420898H98.2315L108 20.2733H105.334L102.654 14.9346H91.7662L89.1561 20.2733H86.5327ZM92.8913 12.6087H101.577L97.213 3.82801L92.8913 12.6087Z" fill="white"></path> <path d="M21.5047 20.2708H0.317383L1.67175 17.9824H19.865L21.5047 20.2708Z" fill="white"></path> <path d="M107.776 20.2708H86.5864L87.9435 17.9824H106.137L107.776 20.2708Z" fill="white"></path> <path d="M32.4302 32.6169H34.7043C35.1974 32.6074 35.6874 32.6975 36.1454 32.8818C36.6033 33.0661 37.0198 33.3409 37.3704 33.69C37.7166 34.0211 37.9922 34.4195 38.1805 34.8611C38.3689 35.3027 38.466 35.7782 38.466 36.2587C38.466 36.7393 38.3689 37.2148 38.1805 37.6564C37.9922 38.098 37.7166 38.4964 37.3704 38.8275C37.0202 39.1771 36.6037 39.4522 36.1457 39.6366C35.6877 39.8209 35.1975 39.9107 34.7043 39.9006H32.4302V32.6169ZM34.7043 33.3493H33.2087V39.1682H34.7043C35.0982 39.1783 35.4901 39.1084 35.8565 38.9628C36.223 38.8171 36.5565 38.5987 36.8372 38.3204C37.1105 38.0518 37.3276 37.7309 37.4759 37.3767C37.6242 37.0224 37.7005 36.6418 37.7005 36.2574C37.7005 35.873 37.6242 35.4924 37.4759 35.1382C37.3276 34.7839 37.1105 34.463 36.8372 34.1944C36.5563 33.9166 36.2227 33.6986 35.8562 33.5534C35.4898 33.4083 35.098 33.3388 34.7043 33.3493Z" fill="white"></path> <path d="M48.1337 33.6071C48.7464 34.2199 49.1289 35.0276 49.216 35.8925C49.3031 36.7573 49.0893 37.6258 48.6112 38.3499C48.133 39.0739 47.4201 39.6086 46.594 39.8628C45.7678 40.117 44.8796 40.0749 44.0809 39.7438C43.2821 39.4127 42.6222 38.813 42.2137 38.047C41.8052 37.2811 41.6734 36.3962 41.8408 35.5434C42.0081 34.6905 42.4643 33.9225 43.1315 33.3703C43.7988 32.8181 44.6357 32.5159 45.4996 32.5152C45.9894 32.5066 46.4759 32.5991 46.9289 32.7868C47.3819 32.9746 47.7919 33.2538 48.1337 33.6071ZM43.4067 34.1114C42.859 34.6901 42.5536 35.4586 42.5536 36.2577C42.5536 37.0567 42.859 37.8252 43.4067 38.4039C43.9627 38.9605 44.7152 39.273 45.4996 39.273C46.2839 39.273 47.0364 38.9605 47.5924 38.4039C48.1401 37.8252 48.4456 37.0567 48.4456 36.2577C48.4456 35.4586 48.1401 34.6901 47.5924 34.1114C47.0364 33.5548 46.2839 33.2423 45.4996 33.2423C44.7152 33.2423 43.9627 33.5548 43.4067 34.1114Z" fill="white"></path> <path d="M57.486 39.8982H52.9883V32.6172H53.7668V39.1685H57.4993L57.486 39.8982Z" fill="white"></path> <path d="M61.0529 38.8999C60.5377 38.3742 60.1879 37.7073 60.0472 36.9826C59.9066 36.2579 59.9813 35.5076 60.2621 34.8254C60.5429 34.1433 61.0173 33.5595 61.626 33.1471C62.2346 32.7347 62.9506 32.5121 63.6844 32.5069C64.0455 32.5052 64.405 32.5576 64.7508 32.6625C65.0446 32.7478 65.3254 32.8733 65.5853 33.0354C65.7897 33.1681 65.984 33.3161 66.1665 33.478C66.2995 33.5918 66.4202 33.7195 66.5264 33.859L66.641 34.0146L66.1185 34.4894C66.0972 34.4572 66.0678 34.4116 66.0278 34.3553C65.939 34.2519 65.8447 34.1533 65.7452 34.0602C65.5971 33.9185 65.4354 33.7918 65.2627 33.6819C65.0476 33.5529 64.8174 33.4511 64.5775 33.3788C64.2905 33.2867 63.9909 33.2405 63.6897 33.242C63.3001 33.2338 62.9131 33.3069 62.553 33.4564C62.1928 33.606 61.8673 33.8289 61.5968 34.1112C61.0492 34.6898 60.7437 35.4583 60.7437 36.2574C60.7437 37.0565 61.0492 37.8249 61.5968 38.4036C61.8673 38.6858 62.1928 38.9087 62.553 39.0583C62.9131 39.2079 63.3001 39.2809 63.6897 39.2728C63.9903 39.2743 64.2895 39.2309 64.5775 39.144C64.8258 39.0737 65.0628 38.968 65.2813 38.8301C65.4535 38.7204 65.6182 38.5994 65.7746 38.468C65.889 38.3769 65.9904 38.2704 66.0758 38.1514L66.1718 38.0253L66.6864 38.4948C66.649 38.5511 66.6081 38.6049 66.5637 38.6558C66.4477 38.7814 66.3249 38.9005 66.1958 39.0126C66.0083 39.184 65.8067 39.3393 65.5933 39.4767C64.8802 39.9013 64.047 40.0751 63.225 39.9706C62.4029 39.8662 61.6388 39.4895 61.0529 38.8999Z" fill="white"></path> <path d="M71.0163 39.1685H75.3033V39.8955H70.2378V32.6172H75.1967V33.3496H71.0163V35.7399H74.3835V36.467H71.0163V39.1685Z" fill="white"></path> </g> <defs> <clipPath id="clip0"> <rect width="108" height="40" fill="white"></rect> </clipPath> </defs> </svg> 